<svg width="1899" height="1112" viewBox="0 0 1899 1112" fill="none" xmlns="http://www.w3.org/2000/svg">
<g clip-path="url(#clip0_1782_11677)">
<path d="M301.664 180.822C330.194 183.001 358.527 187.25 386.441 193.535C393.302 193.466 400.113 194.714 406.505 197.208C412.938 200.11 418.274 204.993 421.731 211.144C425.189 217.294 426.587 224.39 425.721 231.392C425.205 238.597 423.485 245.664 420.634 252.299C405.397 285.785 398.049 322.321 399.158 359.092C395.17 459.343 414.516 559.15 455.676 650.653C465.286 670.453 476.634 689.361 489.587 707.157C510.805 734.929 525.293 767.242 531.913 801.555C538.532 835.87 537.102 871.252 527.736 904.921C516.972 942.599 496.034 976.584 467.221 1003.15C438.407 1029.71 402.832 1047.83 364.399 1055.5C319.412 1069.59 270.807 1066.57 227.909 1047.03C201.598 1033.71 178.817 1014.35 161.43 990.529C144.042 966.713 132.543 939.119 127.872 910.006C123.038 888.834 122.833 866.867 127.271 845.609C131.709 824.35 140.686 804.3 153.587 786.828C158.392 779.765 164.326 769.029 174.499 773.267C184.672 777.505 180.716 788.805 179.868 797.281C177.622 825.479 184.701 853.636 200.016 877.422C215.333 901.208 238.04 919.306 264.645 928.936C282.125 933.733 300.575 933.733 318.054 928.936C356.185 921.139 389.759 898.755 411.616 866.56C433.473 834.363 441.88 794.903 435.046 756.598C428.793 711.541 413.304 668.26 389.55 629.464C378.529 611.101 371.181 609.688 354.792 622.683C331.987 644.067 304.507 659.836 274.536 668.735C238.303 677.442 200.426 676.55 164.643 666.145C128.862 655.741 96.4146 636.183 70.5063 609.404C-0.706155 541.599 -11.4446 457.409 15.1188 367.285C25.8654 331.418 44.8523 298.56 70.5629 271.335C96.2734 244.109 127.996 223.272 163.196 210.486C207.01 191.775 254.028 181.702 301.664 180.822ZM143.132 431.7C143.132 440.74 143.132 452.889 145.393 465.037C146.935 500.929 160.693 535.218 184.39 562.224C203.812 581.705 228.688 594.836 255.733 599.879C282.777 604.924 310.717 601.645 335.857 590.476C359.03 581.435 364.117 572.113 355.356 548.663C339.932 500.63 333.794 450.102 337.271 399.775C337.271 365.025 341.509 330.275 343.205 295.525C343.951 288.634 342.791 281.671 339.852 275.393C336.911 269.116 332.305 263.766 326.532 259.927C271.71 223.765 216.322 228.285 179.02 288.18C153.999 331.776 141.576 381.46 143.132 431.7Z" fill="black"/>
<path d="M818.803 279.984C823.366 261.687 830.201 244.034 839.149 227.435C854.083 200.185 876.021 177.415 902.698 161.473C929.373 145.532 959.822 136.995 990.9 136.746C1024.14 134.123 1057.54 139.348 1088.39 152.002C1113.53 162.921 1135.43 180.114 1152.01 201.931C1168.59 223.748 1179.28 249.457 1183.06 276.593C1201.13 364.044 1187.51 455.071 1144.63 533.404C1134.02 554.824 1118.02 573.118 1098.2 586.492C1078.39 599.864 1055.43 607.857 1031.59 609.685C1000.09 615.725 967.523 612.538 937.794 600.51C908.065 588.481 882.446 568.12 864.016 541.88C844.34 513.668 830.593 481.759 823.607 448.083C816.97 421.037 812.994 393.406 811.738 365.587C811.738 363.327 811.738 360.784 810.043 359.089L806.368 364.174C799.03 375.365 789.291 384.78 777.859 391.738C766.427 398.698 753.588 403.024 740.276 404.403C726.963 405.782 713.51 404.182 700.894 399.715C688.276 395.249 676.813 388.031 667.334 378.583C662.096 372.847 658.097 366.092 655.588 358.74C653.077 351.389 652.11 343.6 652.746 335.858C653.383 328.116 655.609 320.588 659.287 313.745C662.963 306.902 668.011 300.892 674.117 296.087C688.857 282.941 706.953 274.14 726.396 270.66C734.592 268.965 743.351 266.705 745.047 257.1C746.742 247.493 738.83 241.56 730.917 237.888C691.637 219.807 660.836 223.761 636.815 259.077C616.982 292.555 602.939 329.135 595.274 367.282C592.449 378.017 590.471 389.036 587.362 399.772C582.046 419.138 581.426 439.493 585.555 459.147C589.683 478.801 598.44 497.187 611.1 512.779C632.725 541.248 656.332 568.154 681.746 593.298C700.567 609.59 713.48 631.637 718.484 656.017C719.957 662.818 718.868 669.923 715.427 675.97C711.985 682.016 706.432 686.582 699.833 688.79C686.833 693.593 673.552 696.7 660.27 700.656C635.766 707.587 614.219 722.378 598.949 742.752C585.101 761.68 570.689 759.985 561.929 738.514C549.599 709.06 541.787 677.914 538.757 646.13C530.201 585.18 511.074 526.191 482.239 471.814C465.284 437.63 446.915 404.292 429.112 370.389C417.243 348.353 420.352 329.142 437.025 320.383C447.366 315.584 459.139 314.868 469.986 318.378C480.834 321.888 489.954 329.365 495.521 339.313L498.912 347.223C504.563 362.479 509.933 364.174 523.497 354.851C533.425 346.74 541.272 336.376 546.387 324.621C560.848 294.398 578.772 265.955 599.796 239.865C620.137 217.621 646.874 202.228 676.328 195.801C705.781 189.376 736.501 192.235 764.263 203.985C778.661 211.513 791.092 222.309 800.564 235.506C810.035 248.704 816.282 263.937 818.803 279.984ZM869.951 333.097C869.037 353.991 870.363 374.923 873.908 395.534C875.967 417.698 883.106 439.09 894.769 458.051C906.432 477.012 922.308 493.032 941.163 504.869C952 512.347 964.253 517.524 977.167 520.085C990.083 522.644 1003.39 522.53 1016.25 519.751C1029.12 516.971 1041.29 511.583 1051.99 503.923C1062.7 496.261 1071.72 486.487 1078.5 475.205C1097.37 447.11 1109.96 415.284 1115.42 381.89C1120.88 348.495 1119.09 314.316 1110.15 281.679C1106.07 262.459 1097.34 244.533 1084.73 229.462C1072.12 214.393 1056.01 202.639 1037.81 195.228C1030 190.506 1020.96 188.226 1011.85 188.679C1002.73 189.132 993.962 192.298 986.661 197.77C971.027 212.011 958.718 229.518 950.612 249.048C942.505 268.579 938.796 289.654 939.751 310.778C939.751 334.228 956.423 344.398 979.879 339.03C988.588 336.595 997.092 333.478 1005.31 329.706C1010.12 328.011 1016.05 323.773 1020.85 328.295C1025.66 332.814 1023.96 339.595 1022.83 345.81C1022.39 348.423 1021.43 350.921 1020.01 353.156C1014.57 362.023 1007.04 369.417 998.07 374.68C989.098 379.944 978.97 382.917 968.577 383.336C958.184 383.755 947.848 381.607 938.483 377.083C929.117 372.558 921.012 365.795 914.883 357.394C906.621 343.964 901.679 328.758 900.47 313.039C900.47 300.607 900.471 288.176 898.493 275.746C898.493 272.072 896.797 267.27 891.993 266.987C889.989 266.729 887.955 267.109 886.179 268.072C884.404 269.036 882.978 270.534 882.103 272.356C879.888 275.967 878.178 279.864 877.017 283.938C872.401 299.92 870.023 316.463 869.951 333.097Z" fill="black"/>
<path d="M1897.17 430.836C1900.03 487.072 1885.21 542.794 1854.78 590.177C1822.61 632.884 1775.27 661.607 1722.53 670.412C1618.25 694.144 1531.49 650.354 1482.32 551.19C1453.81 494.879 1443.39 431.136 1452.49 368.681C1461.59 306.224 1489.78 248.106 1533.18 202.277C1550.28 183.12 1571.22 167.784 1594.64 157.269C1618.06 146.754 1643.44 141.296 1669.11 141.252C1698.25 140.608 1726.5 151.24 1747.99 170.928C1769.47 190.617 1782.52 217.839 1784.41 246.915C1786.54 274.227 1782.35 301.664 1772.15 327.093C1761.96 352.523 1746.04 375.26 1725.63 393.543C1695.77 423.448 1661.57 448.688 1624.19 468.411C1614.14 473.221 1605.27 480.163 1598.18 488.752C1594.41 492.825 1592.12 498.042 1591.66 503.57C1591.2 509.099 1592.6 514.624 1595.63 519.264C1617.13 552.546 1648.87 577.932 1686.07 591.589C1702.71 596.55 1720.45 596.517 1737.08 591.496C1753.7 586.473 1768.5 576.683 1779.61 563.338C1820.53 521.376 1847.23 467.609 1855.91 409.647C1856.46 403.349 1856.46 397.015 1855.91 390.717C1855.81 388.046 1856.29 385.385 1857.32 382.916C1858.33 380.446 1859.88 378.225 1861.83 376.402C1863.79 374.58 1866.11 373.201 1868.66 372.356C1871.19 371.511 1873.88 371.221 1876.54 371.507C1889.53 371.507 1895.74 377.156 1896.03 389.588C1896.31 402.019 1896.6 419.534 1897.17 430.836ZM1539.97 355.967C1540.27 381.691 1543.02 407.327 1548.16 432.531C1552.98 454.568 1559.47 457.675 1578.68 446.656C1614.95 427.417 1646.43 400.287 1670.81 367.269C1683.88 351.824 1692.13 332.885 1694.55 312.799C1696.96 292.711 1693.42 272.358 1684.37 254.26C1678.04 240.36 1667.2 229.003 1653.61 222.03C1640.02 215.055 1624.47 212.875 1609.48 215.838C1597.19 218.928 1585.87 225.046 1576.54 233.631C1567.2 242.216 1560.18 252.999 1556.08 264.996C1544.21 293.805 1538.72 324.838 1539.97 355.967Z" fill="black"/>
<path d="M1288.75 42.6633C1287.05 65.83 1282.81 88.7142 1282.25 112.163C1281.49 166.396 1289.51 220.394 1305.99 272.07C1311.02 295.929 1317.63 319.43 1325.77 342.417C1328.59 348.068 1330.29 357.955 1337.07 357.108C1343.85 356.26 1343.85 346.09 1344.7 339.592C1348.66 307.102 1348.09 274.047 1354.59 241.557C1367.61 164.762 1400.11 92.5851 1448.98 31.9276C1458.35 18.5917 1472.35 9.22445 1488.26 5.65314C1495.94 4.52796 1503.78 5.60567 1510.86 8.76086C1527.96 15.8414 1545.64 21.4188 1563.7 25.4296C1583.21 29.6674 1587.44 40.4032 1577.55 57.6369C1564.97 77.4375 1550.99 96.3198 1535.74 114.141C1474 192.305 1429.68 282.753 1405.73 379.428C1391.7 435.95 1372.79 491.153 1349.22 544.419C1347.53 548.512 1345.55 552.477 1343.29 556.285C1335.09 570.411 1328.59 570.693 1320.12 556.285C1308.71 535.825 1299.97 513.987 1294.12 491.306C1252.22 356.909 1201.92 225.276 1143.5 97.1898C1139.72 91.518 1137.35 85.0292 1136.58 78.2597C1135.8 71.4901 1136.65 64.6339 1139.06 58.2576C1141.46 51.8813 1145.34 46.168 1150.39 41.5896C1155.44 37.0113 1161.5 33.6995 1168.08 31.9276C1196.34 19.2142 1224.6 11.8686 1255.12 1.98037C1271.51 -3.95256 1283.38 3.95802 1286.77 21.1918C1288.28 28.2448 1288.95 35.4529 1288.75 42.6633Z" fill="black"/>
<path d="M934.381 786.252C935.659 767.372 934.711 748.407 931.556 729.747C930.201 723.111 931.521 716.207 935.229 710.537C941.341 700.21 949.956 691.59 960.277 685.467C970.599 679.344 982.296 675.918 994.291 675.504C1011.25 675.504 1022.55 688.782 1022.55 708.276C1022.34 726.83 1019.19 745.234 1013.22 762.802C1006.15 783.396 1000.49 804.445 996.268 825.805C994.573 838.235 992.877 851.232 1005.31 858.86C1011.68 862.89 1019.14 864.864 1026.68 864.51C1034.21 864.156 1041.45 861.492 1047.42 856.882C1055.61 850.846 1062.39 843.09 1067.27 834.159C1072.15 825.229 1075.02 815.338 1075.68 805.18C1081 776.43 1080.23 746.882 1073.42 718.447C1071.67 711.287 1071.81 703.794 1073.85 696.71C1075.88 689.625 1079.72 683.193 1085 678.046C1092.63 670.418 1099.98 675.503 1104.78 682.849C1114.19 697.992 1120.35 714.924 1122.87 732.573C1129.12 759.866 1128.81 788.249 1121.99 815.404C1115.16 842.558 1102 867.711 1083.59 888.807C1071.67 903.648 1055.21 914.171 1036.73 918.764C1018.25 923.356 998.778 921.765 981.292 914.234C968.756 907.941 958.089 898.473 950.355 886.774C942.62 875.076 938.087 861.555 937.208 847.558C934.463 827.247 933.517 806.732 934.381 786.252Z" fill="black"/>
<path d="M858.082 867.905C857.457 824.907 852.247 782.098 842.54 740.206C838.593 722.317 835.761 704.201 834.063 685.962C832.649 665.62 844.801 656.297 864.017 663.643C868.627 666.407 873.841 668.007 879.209 668.301C884.576 668.597 889.934 667.58 894.82 665.338C901.602 661.382 904.709 668.445 905.275 674.096C906.385 683.48 906.385 692.963 905.275 702.347C900.754 738.793 903.297 774.956 901.602 811.401C901.009 845.683 895.684 879.718 885.776 912.543C882.312 928.195 874.796 942.663 863.983 954.499C853.168 966.336 839.434 975.125 824.155 979.988C808.875 984.851 792.587 985.617 776.919 982.209C761.249 978.801 746.752 971.34 734.874 960.571C725.582 954.097 717.75 945.749 711.881 936.064C706.013 926.38 702.238 915.573 700.8 904.342C699.364 893.111 700.294 881.703 703.535 870.853C706.775 860.003 712.253 849.953 719.614 841.347C725.231 834.743 732.181 829.399 740.006 825.664C747.833 821.929 756.36 819.888 765.028 819.674C773.699 819.461 782.315 821.08 790.315 824.426C798.315 827.771 805.519 832.767 811.455 839.088C813.758 840.976 815.583 843.38 816.782 846.106C817.981 848.832 818.519 851.802 818.354 854.774C818.188 857.747 817.324 860.639 815.831 863.214C814.337 865.791 812.258 867.978 809.759 869.6C804.684 874.347 798.25 877.388 791.359 878.3C784.469 879.211 777.464 877.947 771.328 874.686C752.959 866.21 750.416 868.187 751.263 888.247C751.878 901.352 756.33 913.989 764.067 924.587C771.804 935.185 782.484 943.277 794.783 947.858C802.456 951.49 811.213 952.112 819.324 949.601C827.434 947.09 834.307 941.63 838.583 934.297C851.731 914.685 858.538 891.509 858.082 867.905Z" fill="black"/>
<path d="M1454.63 839.933C1454.55 807.041 1466.34 775.225 1487.83 750.318C1509.31 725.411 1539.07 709.08 1571.63 704.323C1579.93 702.769 1588.46 702.769 1596.77 704.323C1601.74 705.057 1606.5 706.806 1610.75 709.463C1615 712.12 1618.67 715.626 1621.52 719.764C1624.35 723.901 1626.3 728.58 1627.25 733.507C1628.19 738.433 1628.11 743.502 1627.01 748.396C1623.88 768.284 1614.2 786.558 1599.51 800.325C1584.82 814.093 1565.96 822.563 1545.91 824.395C1537.15 825.808 1528.38 826.372 1519.91 827.503C1517.5 827.468 1515.13 827.987 1512.97 829.021C1510.8 830.055 1508.92 831.575 1507.44 833.463C1505.96 835.351 1504.94 837.554 1504.46 839.903C1503.97 842.251 1504.04 844.678 1504.65 846.997C1510.86 891.07 1535.45 903.5 1573.04 878.921C1588.05 870.217 1600.83 858.124 1610.34 843.607C1610.96 842.274 1611.86 841.082 1612.96 840.101C1614.07 839.121 1615.36 838.371 1616.75 837.896C1618.14 837.423 1619.62 837.233 1621.1 837.34C1622.56 837.447 1624 837.849 1625.31 838.521C1632.38 841.912 1628.99 847.279 1627.01 852.082C1619.68 870.811 1609.58 888.335 1597.06 904.066C1588.16 916.169 1575.83 925.329 1561.68 930.366C1547.52 935.401 1532.19 936.082 1517.64 932.317C1502.72 929.031 1489.13 921.356 1478.6 910.279C1468.08 899.204 1461.1 885.232 1458.58 870.163C1456.63 860.181 1455.31 850.083 1454.63 839.933ZM1513.98 809.139C1527.8 809.265 1541.32 805.015 1552.58 796.998C1563.85 788.98 1572.29 777.605 1576.71 764.5C1578.61 759.957 1579.05 754.937 1577.96 750.132C1576.89 745.329 1574.34 740.98 1570.68 737.689C1567 734.399 1562.42 732.329 1557.52 731.767C1552.62 731.205 1547.67 732.179 1543.36 734.553C1535.46 737.957 1528.7 743.544 1523.87 750.657C1513.64 766.144 1507.78 784.104 1506.91 802.64C1506.34 808.291 1509.16 809.986 1513.98 809.139Z" fill="black"/>
<path d="M1305.42 802.93C1306.05 824.991 1312.17 846.547 1323.22 865.65C1326.36 871.636 1330.79 876.853 1336.19 880.925C1341.59 884.997 1347.82 887.824 1354.44 889.201C1361.05 890.579 1367.9 890.473 1374.47 888.893C1381.05 887.312 1387.19 884.295 1392.46 880.059C1397.26 876.728 1400.92 871.99 1402.91 866.498C1407.2 856.349 1415.03 848.11 1424.96 843.331C1433.72 839.094 1437.95 841.918 1438.52 851.524C1438.97 866.765 1433.62 881.607 1423.54 893.054C1412.34 904.43 1398.79 913.215 1383.83 918.793C1368.87 924.37 1352.86 926.605 1336.94 925.339C1321.02 924.073 1305.58 919.339 1291.69 911.467C1277.8 903.596 1265.8 892.779 1256.53 879.775C1240.76 850.745 1236.71 816.772 1245.23 784.85C1247.1 770.487 1251.81 756.641 1259.08 744.114C1266.35 731.586 1276.04 720.628 1287.58 711.875C1299.12 703.123 1312.29 696.749 1326.32 693.126C1340.34 689.502 1354.95 688.702 1369.29 690.77H1375.78C1384.26 690.77 1393.87 690.77 1397.54 699.81C1399.05 704.598 1399.33 709.681 1398.4 714.608C1397.46 719.536 1395.33 724.157 1392.17 728.063C1390.56 730.545 1388.07 732.346 1385.21 733.127C1382.35 733.906 1379.3 733.614 1376.64 732.301C1366.74 727.95 1355.61 727.267 1345.25 730.374C1334.9 733.481 1325.98 740.173 1320.12 749.252C1309.31 764.98 1304.14 783.894 1305.42 802.93Z" fill="black"/>
<path d="M1188.71 565.038C1200.62 565.094 1212.24 568.678 1222.1 575.337C1231.97 581.995 1239.64 591.429 1244.15 602.446C1248.65 613.465 1249.78 625.569 1247.41 637.232C1245.03 648.893 1239.25 659.588 1230.79 667.965C1222.33 676.341 1211.58 682.022 1199.89 684.29C1188.21 686.556 1176.11 685.308 1165.13 680.701C1154.16 676.096 1144.79 668.339 1138.23 658.411C1131.66 648.484 1128.18 636.834 1128.24 624.932C1128.2 617.008 1129.74 609.156 1132.77 601.835C1135.81 594.515 1140.27 587.871 1145.9 582.295C1151.53 576.717 1158.22 572.319 1165.57 569.356C1172.92 566.393 1180.79 564.924 1188.71 565.038Z" fill="#F68D39"/>
<path d="M1188.71 911.704C1174.7 910.832 1160.85 908.271 1147.45 904.076C1139.82 902.381 1140.11 896.448 1141.52 890.799C1144.35 880.628 1147.74 870.457 1151.41 860.569C1159.96 832.663 1164.07 803.583 1163.56 774.399C1163.56 765.924 1165.26 757.448 1166.39 749.256C1166.75 745.003 1168.41 740.965 1171.14 737.682C1173.87 734.399 1177.53 732.03 1181.65 730.892C1188.15 729.197 1191.26 722.698 1195.21 717.896C1199.17 713.093 1203.69 703.77 1212.45 706.878C1221.21 709.985 1221.21 720.155 1220.36 728.067C1218.1 753.21 1214.99 778.073 1212.45 803.216C1210.05 822.731 1210.05 842.467 1212.45 861.982C1213.24 867.99 1215.06 873.819 1217.82 879.215C1227.43 897.296 1222.34 907.466 1202.56 911.14L1188.71 911.704Z" fill="black"/>
<path d="M1591.12 1058.89C1591.58 1070.11 1589.25 1081.27 1584.34 1091.38C1581.84 1096.74 1578.1 1101.43 1573.4 1105.03C1568.71 1108.63 1563.22 1111.05 1557.4 1112.08C1551.56 1113.11 1545.58 1112.71 1539.94 1110.92C1534.3 1109.14 1529.17 1106.02 1524.99 1101.83C1522.46 1099.57 1520.19 1097.87 1524.99 1094.2C1529.79 1090.53 1529.79 1090.81 1533.47 1094.2C1554.39 1110.31 1574.45 1102.4 1580.1 1075.84C1580.38 1073.78 1580.38 1071.69 1580.1 1069.62C1578.26 1070.35 1576.47 1071.2 1574.73 1072.17C1568.67 1076.11 1561.6 1078.2 1554.39 1078.2C1547.16 1078.2 1540.09 1076.11 1534.04 1072.17C1528.93 1069.1 1524.92 1064.5 1522.59 1059.02C1520.26 1053.54 1519.72 1047.46 1521.03 1041.65C1522.06 1034.52 1525.37 1027.92 1530.46 1022.83C1535.56 1017.73 1542.16 1014.43 1549.3 1013.4C1556.41 1012.17 1563.73 1013.17 1570.26 1016.25C1576.78 1019.34 1582.19 1024.36 1585.75 1030.64C1589.78 1039.49 1591.62 1049.18 1591.12 1058.89ZM1554.1 1065.67C1557.07 1065.98 1560.07 1065.68 1562.92 1064.78C1565.78 1063.88 1568.41 1062.4 1570.66 1060.44C1572.91 1058.48 1574.75 1056.07 1576.02 1053.38C1577.31 1050.68 1578.01 1047.75 1578.12 1044.76C1578.12 1038.54 1575.65 1032.58 1571.25 1028.18C1566.85 1023.78 1560.88 1021.31 1554.67 1021.31C1548.5 1021.3 1542.57 1023.62 1538.05 1027.82C1533.54 1032.01 1530.8 1037.77 1530.36 1043.91C1530.31 1046.96 1530.89 1049.98 1532.1 1052.78C1533.29 1055.58 1535.08 1058.09 1537.32 1060.14C1539.57 1062.2 1542.22 1063.76 1545.12 1064.71C1548.01 1065.66 1551.08 1065.99 1554.1 1065.67Z" fill="black"/>
<path d="M1399.81 1059.18C1400 1070.32 1397.57 1081.35 1392.74 1091.38C1390.22 1096.6 1386.49 1101.13 1381.86 1104.63C1377.24 1108.13 1371.86 1110.48 1366.15 1111.5C1360.46 1112.52 1354.59 1112.18 1349.04 1110.5C1343.5 1108.82 1338.42 1105.85 1334.25 1101.84C1331.7 1099.58 1328.59 1097.6 1332.27 1093.36C1335.94 1089.12 1337.92 1090.82 1341.31 1093.36C1344.94 1096.98 1349.56 1099.45 1354.59 1100.46C1359.62 1101.46 1364.83 1100.96 1369.57 1099.01C1374.55 1096.09 1378.73 1091.98 1381.74 1087.05C1384.74 1082.12 1386.49 1076.52 1386.81 1070.76C1387.08 1069.74 1387.08 1068.67 1386.81 1067.65L1382 1069.91C1377.51 1072.95 1372.37 1074.92 1367 1075.68C1361.62 1076.45 1356.14 1075.98 1350.97 1074.32C1345.81 1072.66 1341.08 1069.85 1337.15 1066.1C1333.23 1062.35 1330.2 1057.76 1328.31 1052.68C1326.19 1044.63 1327.16 1036.07 1331.03 1028.7C1334.9 1021.33 1341.39 1015.67 1349.22 1012.84C1357.65 1009.72 1366.94 1009.88 1375.27 1013.28C1383.58 1016.68 1390.33 1023.08 1394.15 1031.21C1398.1 1039.99 1400.02 1049.55 1399.81 1059.18ZM1363.35 1065.67C1369.11 1065.99 1374.75 1064.03 1379.09 1060.23C1383.42 1056.43 1386.09 1051.08 1386.53 1045.33C1385.88 1039.45 1383.1 1034.01 1378.69 1030.06C1374.28 1026.1 1368.57 1023.92 1362.64 1023.92C1356.73 1023.92 1351.01 1026.1 1346.61 1030.06C1342.2 1034.01 1339.41 1039.45 1338.77 1045.33C1338.85 1048.35 1339.58 1051.32 1340.9 1054.04C1342.22 1056.76 1344.11 1059.16 1346.44 1061.08C1348.77 1063.01 1351.48 1064.42 1354.4 1065.21C1357.31 1066 1360.36 1066.16 1363.35 1065.67Z" fill="black"/>
<path d="M1426.94 1064.83C1426.8 1052.97 1429.51 1041.25 1434.84 1030.65C1437.58 1025.61 1441.45 1021.27 1446.14 1017.98C1450.84 1014.68 1456.23 1012.53 1461.9 1011.68C1467.59 1010.83 1473.38 1011.31 1478.83 1013.08C1484.29 1014.85 1489.25 1017.87 1493.35 1021.89C1496.17 1024.71 1496.17 1026.41 1493.35 1028.95C1490.51 1031.49 1489.39 1033.19 1486.28 1028.95C1465.08 1010.02 1443.04 1023.58 1438.8 1049.29C1438.8 1050.99 1438.8 1053.81 1438.8 1054.38C1438.8 1054.94 1442.2 1054.38 1443.89 1052.4C1449.64 1048.79 1456.3 1046.88 1463.11 1046.88C1469.91 1046.88 1476.57 1048.79 1482.32 1052.4C1487.19 1054.65 1491.31 1058.23 1494.21 1062.74C1497.1 1067.24 1498.68 1072.47 1498.72 1077.83C1498.94 1085.92 1496.18 1093.81 1490.97 1100.01C1485.76 1106.2 1478.47 1110.27 1470.45 1111.45C1462.53 1113.01 1454.32 1111.82 1447.17 1108.07C1440.03 1104.32 1434.38 1098.23 1431.17 1090.82C1428.27 1082.47 1426.83 1073.68 1426.94 1064.83ZM1464.52 1058.05C1458.5 1057.66 1452.57 1059.62 1447.99 1063.52C1443.4 1067.42 1440.51 1072.96 1439.93 1078.96C1440.22 1084.96 1442.77 1090.63 1447.07 1094.82C1451.37 1099.01 1457.1 1101.42 1463.11 1101.56C1469.3 1101.88 1475.37 1099.79 1480.05 1095.74C1484.75 1091.68 1487.68 1085.98 1488.26 1079.8C1488.15 1076.81 1487.45 1073.87 1486.18 1071.15C1484.94 1068.43 1483.15 1065.99 1480.94 1063.96C1478.74 1061.94 1476.15 1060.37 1473.33 1059.36C1470.5 1058.34 1467.51 1057.9 1464.52 1058.05Z" fill="black"/>
<path d="M919.121 1061.43C919.121 1047.58 919.121 1033.18 919.121 1019.9C919.121 1015.1 919.121 1012.83 925.904 1012.83H982.422C986.379 1012.83 988.922 1012.83 988.922 1018.49C988.922 1024.14 985.247 1023.01 982.14 1023.01H936.077C931.274 1023.01 929.578 1023.01 929.578 1029.22C929.578 1057.47 929.578 1057.47 955.859 1057.47H977.335C981.009 1057.47 983.835 1057.47 983.835 1062.84C983.835 1068.21 980.444 1067.64 977.053 1067.64H937.208C932.122 1067.64 929.578 1067.64 929.578 1074.71C929.578 1102.96 929.578 1102.96 955.859 1102.96H984.117C987.226 1102.96 990.052 1102.96 990.052 1107.48C990.052 1112 990.052 1113.13 984.4 1113.13C964.619 1113.13 944.555 1113.13 924.774 1113.13C919.121 1113.13 918.839 1110.3 918.839 1106.07C919.405 1089.4 919.121 1075.27 919.121 1061.43Z" fill="black"/>
<path d="M1047.42 1011.41C1058.54 1011.76 1069.33 1015.29 1078.5 1021.58C1081.05 1023.56 1083.31 1024.97 1080.48 1028.65C1077.65 1032.32 1076.24 1033.45 1072.29 1030.34C1067.78 1026.84 1062.57 1024.34 1057.01 1023.02C1051.45 1021.71 1045.67 1021.6 1040.07 1022.71C1036.18 1023.12 1032.54 1024.81 1029.72 1027.52C1026.9 1030.24 1025.07 1033.81 1024.53 1037.69C1024.53 1046.73 1030.46 1050.4 1037.53 1052.38C1044.59 1054.36 1056.46 1057.46 1065.79 1060.29C1071.34 1061.49 1076.29 1064.61 1079.76 1069.11C1083.22 1073.61 1084.98 1079.19 1084.72 1084.87C1084.21 1091.03 1081.69 1096.85 1077.56 1101.44C1073.43 1106.03 1067.9 1109.14 1061.83 1110.3C1053.54 1112.27 1044.91 1112.22 1036.64 1110.15C1028.38 1108.09 1020.74 1104.07 1014.36 1098.43C1012.38 1096.73 1007.57 1095.32 1011.53 1090.52C1015.48 1085.72 1017.46 1086.85 1021.42 1090.52C1026.22 1095.13 1032.09 1098.47 1038.5 1100.24C1044.92 1102.02 1051.67 1102.17 1058.16 1100.69C1062.54 1100.78 1066.8 1099.19 1070.05 1096.25C1073.31 1093.31 1075.32 1089.24 1075.68 1084.87C1075.68 1075.26 1069.74 1071.87 1062.39 1069.33C1055.05 1066.79 1048.55 1065.94 1041.77 1064.24C1022.55 1059.44 1013.51 1049.84 1016.33 1035.99C1017.84 1028.92 1021.77 1022.59 1027.45 1018.11C1033.12 1013.62 1040.19 1011.25 1047.42 1011.41Z" fill="black"/>
<path d="M1137 1066.51C1137 1054.64 1137 1042.49 1137 1030.62C1137 1024.13 1135.02 1022.43 1128.8 1022.71C1122.59 1023 1116.09 1022.71 1109.59 1022.71C1103.09 1022.71 1103.93 1022.15 1103.93 1017.06C1103.93 1011.98 1103.93 1011.7 1109.02 1011.7H1174.3C1177.97 1011.7 1179.39 1011.7 1179.39 1017.06C1179.39 1022.43 1177.69 1022.15 1174.02 1021.87C1165.82 1021.87 1153.11 1019.32 1150 1023.56C1146.89 1027.8 1148.3 1040.51 1148.02 1049.55V1102.95C1148.02 1106.91 1148.02 1109.45 1142.65 1109.45C1137.28 1109.45 1137.28 1106.62 1137.28 1102.67L1137 1066.51Z" fill="black"/>
<path d="M777.262 1065.68H696.724C693.899 1065.68 689.094 1067.38 688.812 1061.73C688.529 1056.08 693.333 1057.77 696.442 1057.77H860.343C863.169 1057.77 867.408 1056.08 867.408 1061.44C867.408 1066.81 862.887 1065.68 859.778 1065.68H777.262Z" fill="black"/>
<path d="M1723.94 1065.66H1642.55C1639.45 1065.66 1634.92 1067.07 1634.92 1061.42C1634.92 1055.77 1640 1057.75 1642.84 1057.75H1806.17C1809 1057.75 1813.23 1056.05 1813.23 1061.14C1813.23 1066.22 1809 1065.66 1805.88 1065.66H1723.94Z" fill="black"/>
<path d="M1665.72 944.756C1657.71 944.756 1650.01 941.572 1644.34 935.902C1638.67 930.234 1635.49 922.545 1635.49 914.528C1635.49 906.509 1638.67 898.82 1644.34 893.151C1650.01 887.481 1657.71 884.297 1665.72 884.297C1673.74 884.297 1681.43 887.481 1687.1 893.151C1692.77 898.82 1695.96 906.509 1695.96 914.528C1695.96 922.545 1692.77 930.234 1687.1 935.902C1681.43 941.572 1673.74 944.756 1665.72 944.756ZM1665.72 891.925C1662.81 891.962 1659.92 892.578 1657.24 893.737C1654.56 894.897 1652.14 896.575 1650.12 898.679C1648.09 900.781 1646.5 903.265 1645.46 905.985C1644.4 908.706 1643.88 911.609 1643.96 914.528C1644.02 918.952 1645.39 923.261 1647.91 926.905C1650.42 930.548 1653.96 933.364 1658.07 934.992C1662.19 936.62 1666.7 936.987 1671.03 936.047C1675.35 935.108 1679.3 932.904 1682.36 929.714C1685.44 926.526 1687.49 922.497 1688.27 918.139C1689.04 913.782 1688.5 909.292 1686.72 905.241C1684.93 901.19 1681.99 897.762 1678.24 895.39C1674.51 893.02 1670.14 891.814 1665.72 891.925Z" fill="black"/>
<path d="M1297.79 1060.88C1297.79 1074.16 1297.79 1087.43 1297.79 1100.71C1297.79 1104.39 1300.62 1110.6 1292.42 1110.32C1284.23 1110.04 1287.9 1104.67 1287.9 1101C1287.9 1078.68 1287.9 1056.07 1287.9 1033.47C1287.9 1027.54 1287.9 1024.43 1280.55 1028.39C1273.21 1032.34 1272.64 1033.76 1270.1 1026.69C1267.55 1019.63 1273.49 1020.48 1276.32 1019.07C1297.79 1009.46 1297.79 1009.46 1297.79 1033.19V1060.88Z" fill="black"/>
<path d="M1203.41 1103.52C1203.41 1108.32 1203.41 1110.58 1197.19 1110.58C1190.97 1110.58 1190.69 1107.47 1190.69 1102.67C1190.69 1097.87 1190.69 1095.6 1197.19 1095.6C1203.69 1095.6 1204.26 1098.43 1203.41 1103.52Z" fill="black"/>
<path d="M1653.28 914.814C1653.28 899.276 1659.51 894.472 1673.07 899.84C1677.88 901.535 1680.98 905.773 1678.44 909.446C1675.89 913.119 1678.44 919.334 1678.44 924.419C1678.44 929.504 1681.55 929.222 1678.44 930.07C1675.32 930.917 1672.22 930.07 1671.09 926.68C1669.97 923.289 1671.09 919.052 1665.44 919.334C1659.79 919.617 1662.62 923.855 1662.05 926.68C1661.49 929.504 1662.05 930.352 1658.1 930.352C1654.14 930.352 1653.85 930.352 1653.85 926.114L1653.28 914.814ZM1663.18 904.925C1663.18 904.925 1661.49 906.904 1661.49 909.163C1661.49 911.424 1663.19 912.837 1665.72 912.553C1668.27 912.271 1670.24 912.553 1669.97 908.881C1669.68 905.208 1667.42 904.078 1663.18 904.078V904.925Z" fill="black"/>
</g>
<defs>
<clipPath id="clip0_1782_11677">
<rect width="1899" height="1112" fill="white"/>
</clipPath>
</defs>
</svg>
