<?xml version="1.0" encoding="UTF-8"?>
<svg id="_图层_1" data-name="图层_1" xmlns="http://www.w3.org/2000/svg" version="1.1" viewBox="0 0 972.28 178.78">
  <!-- Generator: Adobe Illustrator 29.1.0, SVG Export Plug-In . SVG Version: 2.1.0 Build 142)  -->
  <defs>
    <style>
      .st0 {
        fill: #123985;
      }

      .st1 {
        fill: #f47920;
      }

      .st2 {
        fill: #009290;
      }
    </style>
  </defs>
  <g>
    <path class="st2" d="M178.78,93.58v-8.37l-12.52-7.17c-.38-2.6-.89-5.15-1.52-7.66l8.81-11.41-2.29-5.51h-90.87l-7.08,17.8h39.09l-31.7,72.69h23.39l31.7-72.69h13.82c1.73,5.74,2.67,11.83,2.67,18.14,0,34.73-28.15,62.88-62.88,62.88-17.92,0-34.09-7.51-45.54-19.55h-18.96c.68,1.01,1.38,2.01,2.11,2.99l-3.79,13.92,5.92,5.92,13.92-3.79c2.09,1.55,4.25,2.99,6.49,4.33l1.85,14.31,7.74,3.2,11.4-8.83c2.46.61,4.96,1.11,7.5,1.48l7.17,12.52h8.37l7.17-12.52c2.6-.38,5.15-.89,7.66-1.52l11.41,8.81,7.73-3.21,1.81-14.31c2.19-1.32,4.31-2.73,6.35-4.25l13.92,3.79,5.92-5.92-3.79-13.92c1.55-2.09,2.99-4.25,4.33-6.49l14.31-1.85,3.2-7.74-8.83-11.4c.61-2.46,1.11-4.96,1.48-7.5l12.52-7.17Z"/>
    <path class="st1" d="M37.81,125.33h45.3l7.81-17.8h-37.37l26.7-67.12h-23.1l-27.39,68.88c-2.08-6.25-3.23-12.94-3.23-19.89,0-34.73,28.15-62.88,62.88-62.88,17.93,0,34.09,7.51,45.54,19.55h18.96c-.68-1.01-1.38-2.01-2.11-2.99l3.79-13.92-5.92-5.92-13.92,3.79c-2.09-1.55-4.25-2.99-6.49-4.33l-1.85-14.31-7.74-3.2-11.4,8.83c-2.46-.61-4.96-1.11-7.5-1.48l-7.17-12.52h-8.37l-7.17,12.52c-2.6.38-5.15.89-7.66,1.52l-11.41-8.81-7.73,3.21-1.81,14.31c-2.19,1.32-4.31,2.73-6.35,4.25l-13.92-3.79-5.92,5.92,3.79,13.92c-1.55,2.09-2.99,4.25-4.33,6.49l-14.31,1.85-3.2,7.74,8.83,11.4c-.61,2.46-1.11,4.96-1.48,7.5l-12.52,7.17v8.37l12.52,7.17c.38,2.6.89,5.15,1.52,7.66l-8.81,11.41,2.29,5.51h30.28Z"/>
  </g>
  <g>
    <path class="st0" d="M236.07,106.26h31.18l-4.16,20.61h-55.95l14.95-74.85h24.77l-10.78,54.24Z"/>
    <path class="st0" d="M347.11,52.02l-3.95,19.54h-21.36l-11.1,55.31h-24.77l11.11-55.31h-21.25l3.95-19.54h67.37Z"/>
    <path class="st0" d="M424.95,54.21c5.48,2.53,9.97,5.89,13.45,10.09l-16.12,16.98c-1.92-3.06-4.32-5.53-7.21-7.42-2.88-1.88-5.78-2.83-8.7-2.83-3.2,0-6.12.86-8.76,2.56-2.63,1.71-4.74,4.08-6.3,7.1-1.57,3.03-2.35,6.39-2.35,10.09,0,4.7,1.28,8.56,3.84,11.59,2.56,3.03,5.87,4.54,9.93,4.54,2.7,0,5.69-.8,8.97-2.41,3.27-1.6,6.26-3.72,8.97-6.35l12.71,15.27c-4.63,4.63-10.02,8.31-16.18,11.05-6.16,2.74-12.12,4.11-17.88,4.11-7.05,0-13.29-1.53-18.74-4.59-5.44-3.06-9.66-7.3-12.65-12.71-2.99-5.41-4.49-11.53-4.49-18.37,0-7.97,1.98-15.2,5.93-21.68,3.95-6.48,9.34-11.56,16.18-15.27,6.83-3.7,14.38-5.55,22.64-5.55,5.69,0,11.28,1.27,16.76,3.79Z"/>
    <path class="st0" d="M503.38,54.96c5.66,3.02,10.05,7.21,13.19,12.54,3.13,5.34,4.7,11.43,4.7,18.26,0,8.05-1.99,15.32-5.98,21.84-3.99,6.51-9.43,11.64-16.34,15.38-6.9,3.74-14.56,5.61-22.96,5.61-7.33,0-13.83-1.53-19.49-4.59-5.66-3.06-10.05-7.3-13.19-12.71-3.13-5.41-4.7-11.53-4.7-18.37,0-8.04,1.99-15.3,5.98-21.78,3.99-6.48,9.43-11.55,16.34-15.22,6.9-3.66,14.56-5.5,22.96-5.5,7.33,0,13.83,1.52,19.49,4.54ZM473.37,73.69c-2.74,1.78-4.97,4.22-6.67,7.31-1.71,3.1-2.56,6.5-2.56,10.2,0,3.13.64,5.98,1.92,8.54,1.28,2.57,3.01,4.57,5.18,6.03,2.17,1.46,4.54,2.19,7.1,2.19,3.06,0,5.93-.91,8.6-2.73,2.67-1.81,4.81-4.29,6.41-7.42,1.6-3.13,2.4-6.58,2.4-10.35,0-4.77-1.3-8.7-3.9-11.8-2.6-3.1-5.86-4.64-9.77-4.64-3.06,0-5.96.89-8.7,2.67Z"/>
    <path class="st0" d="M585.97,52.02h22.42l-14.95,74.85h-20.72l-21.78-38.22-7.69,38.22h-22.53l14.95-74.85h20.71l21.89,38.44,7.69-38.44Z"/>
    <path class="st0" d="M681.74,52.02l-3.95,19.54h-21.36l-11.11,55.31h-24.77l11.11-55.31h-21.25l3.95-19.54h67.38Z"/>
    <path class="st0" d="M746.61,91.1c-2.95,5.05-7.21,8.97-12.76,11.75l9.83,24.03h-27.98l-5.12-19.43h-9.29l-3.84,19.43h-24.77l14.95-74.85h36.2c8.76,0,15.48,1.87,20.18,5.61,4.7,3.74,7.05,9.06,7.05,15.96s-1.48,12.46-4.43,17.51ZM705.13,88.64h11.43c3.2,0,5.75-1.01,7.63-3.04s2.83-4.71,2.83-8.06c0-2.14-.6-3.79-1.81-4.97s-2.92-1.76-5.12-1.76h-11.43l-3.52,17.83Z"/>
    <path class="st0" d="M818.9,54.96c5.66,3.02,10.05,7.21,13.19,12.54,3.13,5.34,4.7,11.43,4.7,18.26,0,8.05-1.99,15.32-5.98,21.84-3.99,6.51-9.43,11.64-16.34,15.38-6.91,3.74-14.56,5.61-22.96,5.61-7.33,0-13.83-1.53-19.49-4.59-5.66-3.06-10.06-7.3-13.19-12.71-3.13-5.41-4.7-11.53-4.7-18.37,0-8.04,1.99-15.3,5.98-21.78,3.99-6.48,9.43-11.55,16.34-15.22,6.9-3.66,14.56-5.5,22.96-5.5,7.33,0,13.83,1.52,19.49,4.54ZM788.89,73.69c-2.74,1.78-4.97,4.22-6.67,7.31-1.71,3.1-2.56,6.5-2.56,10.2,0,3.13.64,5.98,1.92,8.54,1.28,2.57,3,4.57,5.18,6.03s4.54,2.19,7.1,2.19c3.06,0,5.93-.91,8.6-2.73,2.67-1.81,4.8-4.29,6.41-7.42,1.6-3.13,2.4-6.58,2.4-10.35,0-4.77-1.3-8.7-3.9-11.8-2.6-3.1-5.86-4.64-9.77-4.64-3.06,0-5.96.89-8.7,2.67Z"/>
    <path class="st0" d="M865.18,106.26h31.18l-4.16,20.61h-55.95l14.95-74.85h24.77l-10.79,54.24Z"/>
    <path class="st0" d="M957.76,52.66c5.62,1.64,10.46,3.81,14.52,6.51l-11,18.9c-3.77-2.35-8.06-4.41-12.86-6.19-4.81-1.78-8.77-2.67-11.9-2.67-1.49,0-2.69.29-3.58.85-.89.57-1.33,1.46-1.33,2.67,0,1.57.91,2.82,2.72,3.74s4.68,1.92,8.6,2.99c4.84,1.43,8.84,2.85,12.01,4.27,3.17,1.42,5.93,3.59,8.27,6.51,2.35,2.92,3.52,6.76,3.52,11.53,0,5.84-1.55,10.77-4.64,14.79-3.1,4.02-7.23,6.99-12.39,8.92-5.16,1.92-10.84,2.88-17.03,2.88-6.62,0-13.19-1.08-19.7-3.26-6.51-2.17-12.05-5.14-16.6-8.92l11.11-18.69c3.42,3.27,7.85,6.07,13.3,8.38,5.44,2.31,10.09,3.47,13.93,3.47,2,0,3.56-.37,4.7-1.12,1.14-.75,1.71-1.87,1.71-3.36,0-1.64-.93-2.9-2.78-3.79-1.85-.89-4.8-1.87-8.86-2.93-4.77-1.28-8.74-2.6-11.9-3.95s-5.91-3.43-8.22-6.25c-2.31-2.81-3.47-6.5-3.47-11.05,0-5.34,1.46-10.04,4.38-14.09,2.92-4.06,6.99-7.17,12.22-9.34,5.23-2.17,11.27-3.26,18.1-3.26,5.84,0,11.57.82,17.19,2.45Z"/>
  </g>
</svg>