<?xml version="1.0" encoding="UTF-8"?>
<svg id="_图层_1" data-name="图层_1" xmlns="http://www.w3.org/2000/svg" version="1.1" viewBox="0 0 207.13 207.13">
  <!-- Generator: Adobe Illustrator 29.1.0, SVG Export Plug-In . SVG Version: 2.1.0 Build 142)  -->
  <defs>
    <style>
      .st0 {
        fill: #f47920;
      }

      .st1 {
        fill: #009290;
      }
    </style>
  </defs>
  <path class="st1" d="M192.95,107.75v-8.37l-12.52-7.17c-.38-2.6-.89-5.15-1.52-7.66l8.81-11.41-2.29-5.51h-90.87l-7.08,17.8h39.09l-31.7,72.69h23.39l31.7-72.69h13.82c1.73,5.74,2.67,11.83,2.67,18.14,0,34.73-28.15,62.88-62.88,62.88-17.92,0-34.09-7.51-45.54-19.55h-18.96c.68,1.01,1.38,2.01,2.11,2.99l-3.79,13.92,5.92,5.92,13.92-3.79c2.09,1.55,4.25,2.99,6.49,4.33l1.85,14.31,7.74,3.2,11.4-8.83c2.46.61,4.96,1.11,7.5,1.48l7.17,12.52h8.37l7.17-12.52c2.6-.38,5.15-.89,7.66-1.52l11.41,8.81,7.73-3.21,1.81-14.31c2.19-1.32,4.31-2.73,6.35-4.25l13.92,3.79,5.92-5.92-3.79-13.92c1.55-2.09,2.99-4.25,4.33-6.49l14.31-1.85,3.2-7.74-8.83-11.4c.61-2.46,1.11-4.96,1.48-7.5l12.52-7.17Z"/>
  <path class="st0" d="M51.98,139.5h45.3l7.81-17.8h-37.37l26.7-67.12h-23.1l-27.39,68.88c-2.08-6.25-3.23-12.94-3.23-19.89,0-34.73,28.15-62.88,62.88-62.88,17.93,0,34.09,7.51,45.54,19.55h18.96c-.68-1.01-1.38-2.01-2.11-2.99l3.79-13.92-5.92-5.92-13.92,3.79c-2.09-1.55-4.25-2.99-6.49-4.33l-1.85-14.31-7.74-3.2-11.4,8.83c-2.46-.61-4.96-1.11-7.5-1.48l-7.17-12.52h-8.37l-7.17,12.52c-2.6.38-5.15.89-7.66,1.52l-11.41-8.81-7.73,3.21-1.81,14.31c-2.19,1.32-4.31,2.73-6.35,4.25l-13.92-3.79-5.92,5.92,3.79,13.92c-1.55,2.09-2.99,4.25-4.33,6.49l-14.31,1.85-3.2,7.74,8.83,11.4c-.61,2.46-1.11,4.96-1.48,7.5l-12.52,7.17v8.37l12.52,7.17c.38,2.6.89,5.15,1.52,7.66l-8.81,11.41,2.29,5.51h30.28Z"/>
</svg>